M48
; DRILL file KiCad 10.0.5 date 2026-07-25T01:04:56
; FORMAT={-:-/ absolute / metric / decimal}
; #@! TF.CreationDate,2026-07-25T01:04:56-05:00
; #@! TF.GenerationSoftware,Kicad,Pcbnew,10.0.5
; #@! TF.FileFunction,Plated,1,2,PTH
FMAT,2
METRIC
; #@! TA.AperFunction,Plated,PTH,ViaDrill
T1C0.300
%
G90
G05
T1
X132.45Y-58.35
X132.45Y-67.25
X132.675Y-86.725
X132.675Y-95.65
X133.475Y-58.35
X133.475Y-67.25
X133.7Y-86.725
X133.7Y-95.65
X134.475Y-58.35
X134.475Y-67.25
X134.7Y-86.725
X134.7Y-95.65
X135.525Y-58.35
X135.525Y-67.25
X135.75Y-86.725
X135.75Y-95.65
X136.525Y-87.325
X136.525Y-88.225
X136.525Y-89.225
X136.525Y-93.325
X136.525Y-94.225
X136.525Y-95.225
X136.6Y-58.875
X136.6Y-59.775
X136.6Y-60.775
X136.6Y-64.875
X136.6Y-65.775
X136.6Y-66.775
X136.618Y-61.7
X136.618Y-63.9
X136.932Y-90.075
X136.932Y-92.275
X137.125Y-96.625
X137.636Y-61.7
X137.636Y-63.9
X138.055Y-90.075
X138.055Y-92.275
X138.654Y-61.7
X138.654Y-63.9
X139.0Y-96.625
X139.179Y-90.075
X139.179Y-92.275
X139.673Y-61.7
X139.673Y-63.9
X140.302Y-90.075
X140.302Y-92.275
X140.35Y-88.312
X140.691Y-61.7
X140.691Y-63.9
X141.05Y-86.7
X141.05Y-92.875
X141.71Y-61.7
X141.71Y-63.9
X141.85Y-94.6
X141.85Y-95.6
X141.85Y-96.6
X141.85Y-97.6
X141.85Y-98.55
X142.4Y-86.7
X142.4Y-92.875
X142.728Y-61.7
X142.728Y-63.9
X142.85Y-94.6
X142.85Y-95.6
X142.85Y-96.6
X142.85Y-97.6
X142.85Y-98.55
X143.575Y-86.7
X143.575Y-92.875
X143.746Y-61.7
X143.746Y-63.9
X143.825Y-93.875
X143.85Y-94.6
X143.85Y-95.6
X143.85Y-96.6
X143.85Y-97.6
X143.85Y-98.55
X144.765Y-61.7
X144.765Y-63.9
X144.775Y-94.375
X144.85Y-96.6
X144.85Y-97.6
X144.85Y-98.55
X144.975Y-85.525
X144.975Y-86.525
X144.975Y-87.525
X144.975Y-88.5
X144.975Y-89.4
X144.975Y-90.15
X145.783Y-61.7
X145.783Y-63.9
X145.85Y-96.6
X145.85Y-97.6
X145.85Y-98.55
X145.9Y-94.375
X146.05Y-85.525
X146.05Y-86.525
X146.05Y-87.525
X146.05Y-88.475
X146.05Y-89.4
X146.05Y-90.2
X146.8Y-93.65
X146.8Y-94.65
X146.8Y-95.6
X146.8Y-96.6
X146.8Y-97.6
X146.8Y-98.55
X146.801Y-61.7
X146.801Y-63.9
X147.05Y-85.525
X147.05Y-86.525
X147.05Y-87.525
X147.05Y-88.475
X147.8Y-93.65
X147.8Y-94.65
X147.8Y-95.6
X147.8Y-96.6
X147.8Y-97.6
X147.8Y-98.55
X147.82Y-61.7
X147.82Y-63.9
X148.2Y-91.475
X148.225Y-90.8
X148.8Y-93.65
X148.8Y-94.65
X148.8Y-95.6
X148.8Y-96.6
X148.8Y-97.6
X148.8Y-98.55
X148.838Y-61.7
X148.838Y-63.9
X148.925Y-91.475
X148.95Y-90.8
X149.15Y-81.711
X149.15Y-82.825
X149.15Y-80.596
X149.676Y-79.552
X149.8Y-93.65
X149.8Y-94.65
X149.8Y-95.6
X149.8Y-96.6
X149.8Y-97.6
X149.8Y-98.55
X149.857Y-61.7
X149.857Y-63.9
X149.975Y-87.525
X149.975Y-88.475
X150.025Y-89.325
X150.464Y-78.764
X150.8Y-93.65
X150.8Y-94.65
X150.8Y-95.6
X150.8Y-96.6
X150.8Y-97.6
X150.8Y-98.55
X150.875Y-61.7
X150.875Y-63.9
X150.975Y-88.475
X150.975Y-89.325
X151.05Y-90.35
X151.05Y-91.95
X151.252Y-77.976
X151.8Y-94.65
X151.8Y-95.6
X151.8Y-96.6
X151.8Y-97.6
X151.8Y-98.55
X151.893Y-61.7
X151.893Y-63.9
X152.04Y-77.188
X152.3Y-92.2
X152.428Y-80.369
X152.75Y-93.125
X152.825Y-96.6
X152.825Y-97.6
X152.825Y-98.55
X152.902Y-76.501
X152.912Y-61.7
X152.912Y-63.9
X153.156Y-79.641
X153.6Y-88.75
X153.6Y-89.95
X153.6Y-94.25
X153.825Y-79.025
X153.825Y-96.6
X153.825Y-97.6
X153.825Y-98.55
X153.914Y-76.438
X153.93Y-61.7
X153.93Y-63.9
X154.675Y-88.75
X154.7Y-89.95
X154.7Y-94.25
X154.813Y-78.962
X154.825Y-96.6
X154.825Y-97.6
X154.825Y-98.55
X154.934Y-76.438
X154.949Y-61.7
X154.949Y-63.9
X155.45Y-88.25
X155.45Y-89.375
X155.55Y-92.225
X155.55Y-93.125
X155.825Y-94.65
X155.825Y-95.65
X155.825Y-96.6
X155.825Y-97.6
X155.825Y-98.55
X155.842Y-78.962
X155.953Y-76.438
X155.967Y-61.7
X155.967Y-63.9
X156.6Y-87.375
X156.6Y-92.625
X156.825Y-94.65
X156.825Y-95.65
X156.825Y-96.6
X156.825Y-97.6
X156.825Y-98.55
X156.871Y-78.962
X156.973Y-76.438
X156.985Y-61.7
X156.985Y-63.9
X157.7Y-87.375
X157.7Y-92.625
X157.9Y-78.962
X157.992Y-76.438
X158.004Y-61.7
X158.004Y-63.9
X158.8Y-87.375
X158.8Y-92.625
X158.928Y-78.962
X159.012Y-76.438
X159.022Y-61.7
X159.022Y-63.9
X159.725Y-90.125
X159.725Y-92.25
X159.775Y-88.25
X159.775Y-89.1
X159.957Y-78.962
X160.031Y-76.438
X160.04Y-61.7
X160.04Y-63.9
X160.825Y-90.125
X160.825Y-92.25
X160.986Y-78.962
X161.051Y-76.438
X161.059Y-61.7
X161.059Y-63.9
X161.925Y-90.125
X161.925Y-92.25
X162.015Y-78.962
X162.07Y-76.438
X162.077Y-61.7
X162.077Y-63.9
X162.95Y-90.125
X162.95Y-92.25
X163.044Y-78.962
X163.09Y-76.438
X163.096Y-61.7
X163.096Y-63.9
X164.05Y-90.125
X164.05Y-92.25
X164.072Y-78.962
X164.109Y-76.438
X164.114Y-61.7
X164.114Y-63.9
X165.075Y-73.725
X165.075Y-74.625
X165.075Y-75.625
X165.075Y-79.725
X165.075Y-80.625
X165.075Y-81.625
X165.101Y-78.962
X165.125Y-58.875
X165.125Y-59.775
X165.125Y-60.775
X165.125Y-64.875
X165.125Y-65.775
X165.125Y-66.775
X165.129Y-76.438
X165.132Y-61.7
X165.132Y-63.9
X165.15Y-87.325
X165.15Y-88.225
X165.15Y-89.225
X165.15Y-90.125
X165.15Y-92.25
X165.15Y-93.325
X165.15Y-94.225
X165.15Y-95.225
X166.0Y-58.35
X166.0Y-67.25
X166.0Y-73.275
X166.0Y-82.2
X166.0Y-86.725
X166.0Y-95.65
X167.025Y-58.35
X167.025Y-67.25
X167.025Y-73.275
X167.025Y-82.2
X167.025Y-86.725
X167.025Y-95.65
X168.025Y-58.35
X168.025Y-67.25
X168.025Y-73.275
X168.025Y-82.2
X168.025Y-86.725
X168.025Y-95.65
X169.075Y-58.35
X169.075Y-67.25
X169.075Y-73.275
X169.075Y-82.2
X169.075Y-86.725
X169.075Y-95.65
M30
