%TF.GenerationSoftware,KiCad,Pcbnew,10.0.5*%
%TF.CreationDate,2026-07-25T01:01:45-05:00*%
%TF.ProjectId,rydshift_test,72796473-6869-4667-945f-746573742e6b,rev?*%
%TF.SameCoordinates,Original*%
%TF.FileFunction,Copper,L1,Top*%
%TF.FilePolarity,Positive*%
%FSLAX46Y46*%
G04 Gerber Fmt 4.6, Leading zero omitted, Abs format (unit mm)*
G04 Created by KiCad (PCBNEW 10.0.5) date 2026-07-25 01:01:45*
%MOMM*%
%LPD*%
G01*
G04 APERTURE LIST*
G04 Aperture macros list*
%AMRoundRect*
0 Rectangle with rounded corners*
0 $1 Rounding radius*
0 $2 $3 $4 $5 $6 $7 $8 $9 X,Y pos of 4 corners*
0 Add a 4 corners polygon primitive as box body*
4,1,4,$2,$3,$4,$5,$6,$7,$8,$9,$2,$3,0*
0 Add four circle primitives for the rounded corners*
1,1,$1+$1,$2,$3*
1,1,$1+$1,$4,$5*
1,1,$1+$1,$6,$7*
1,1,$1+$1,$8,$9*
0 Add four rect primitives between the rounded corners*
20,1,$1+$1,$2,$3,$4,$5,0*
20,1,$1+$1,$4,$5,$6,$7,0*
20,1,$1+$1,$6,$7,$8,$9,0*
20,1,$1+$1,$8,$9,$2,$3,0*%
G04 Aperture macros list end*
%TA.AperFunction,SMDPad,CuDef*%
%ADD10RoundRect,0.218750X-0.381250X0.218750X-0.381250X-0.218750X0.381250X-0.218750X0.381250X0.218750X0*%
%TD*%
%TA.AperFunction,SMDPad,CuDef*%
%ADD11RoundRect,0.250000X-0.250000X-0.475000X0.250000X-0.475000X0.250000X0.475000X-0.250000X0.475000X0*%
%TD*%
%TA.AperFunction,SMDPad,CuDef*%
%ADD12RoundRect,0.250000X0.475000X-0.250000X0.475000X0.250000X-0.475000X0.250000X-0.475000X-0.250000X0*%
%TD*%
%TA.AperFunction,SMDPad,CuDef*%
%ADD13RoundRect,0.225000X0.225000X0.250000X-0.225000X0.250000X-0.225000X-0.250000X0.225000X-0.250000X0*%
%TD*%
%TA.AperFunction,SMDPad,CuDef*%
%ADD14RoundRect,0.135000X0.185000X-0.135000X0.185000X0.135000X-0.185000X0.135000X-0.185000X-0.135000X0*%
%TD*%
%TA.AperFunction,SMDPad,CuDef*%
%ADD15RoundRect,0.250000X-1.600000X0.425000X-1.600000X-0.425000X1.600000X-0.425000X1.600000X0.425000X0*%
%TD*%
%TA.AperFunction,SMDPad,CuDef*%
%ADD16RoundRect,0.250000X-1.350000X0.385000X-1.350000X-0.385000X1.350000X-0.385000X1.350000X0.385000X0*%
%TD*%
%TA.AperFunction,SMDPad,CuDef*%
%ADD17RoundRect,0.250000X1.600000X-0.425000X1.600000X0.425000X-1.600000X0.425000X-1.600000X-0.425000X0*%
%TD*%
%TA.AperFunction,SMDPad,CuDef*%
%ADD18RoundRect,0.250000X1.350000X-0.385000X1.350000X0.385000X-1.350000X0.385000X-1.350000X-0.385000X0*%
%TD*%
%TA.AperFunction,SMDPad,CuDef*%
%ADD19RoundRect,0.225000X0.250000X-0.225000X0.250000X0.225000X-0.250000X0.225000X-0.250000X-0.225000X0*%
%TD*%
%TA.AperFunction,SMDPad,CuDef*%
%ADD20RoundRect,0.140000X0.140000X0.170000X-0.140000X0.170000X-0.140000X-0.170000X0.140000X-0.170000X0*%
%TD*%
%TA.AperFunction,SMDPad,CuDef*%
%ADD21R,1.450000X1.450000*%
%TD*%
%TA.AperFunction,SMDPad,CuDef*%
%ADD22R,0.300000X0.850000*%
%TD*%
%TA.AperFunction,SMDPad,CuDef*%
%ADD23R,0.850000X0.300000*%
%TD*%
%TA.AperFunction,SMDPad,CuDef*%
%ADD24RoundRect,0.135000X-0.185000X0.135000X-0.185000X-0.135000X0.185000X-0.135000X0.185000X0.135000X0*%
%TD*%
%TA.AperFunction,SMDPad,CuDef*%
%ADD25RoundRect,0.218750X0.381250X-0.218750X0.381250X0.218750X-0.381250X0.218750X-0.381250X-0.218750X0*%
%TD*%
%TA.AperFunction,SMDPad,CuDef*%
%ADD26RoundRect,0.140000X-0.140000X-0.170000X0.140000X-0.170000X0.140000X0.170000X-0.140000X0.170000X0*%
%TD*%
%TA.AperFunction,ViaPad*%
%ADD27C,0.600000*%
%TD*%
%TA.AperFunction,Conductor*%
%ADD28C,0.300000*%
%TD*%
%TA.AperFunction,Conductor*%
%ADD29C,0.900000*%
%TD*%
%TA.AperFunction,Conductor*%
%ADD30C,0.350000*%
%TD*%
%TA.AperFunction,Conductor*%
%ADD31C,1.450000*%
%TD*%
%TA.AperFunction,Conductor*%
%ADD32C,1.300000*%
%TD*%
G04 APERTURE END LIST*
D10*
%TO.P,L9,2,2_2*%
%TO.N,Net-(L8-Pad1)*%
X152125000Y-86625000D03*
%TO.P,L9,1,1_1*%
%TO.N,+12V*%
X152125000Y-84500000D03*
%TD*%
D11*
%TO.P,C33,2*%
%TO.N,OUT_amp*%
X158500000Y-88800000D03*
%TO.P,C33,1*%
%TO.N,Net-(IC1-RF-OUT+VDD)*%
X156600000Y-88800000D03*
%TD*%
D12*
%TO.P,C29,2*%
%TO.N,Net-(IC1-RF-OUT+VDD)*%
X154150000Y-91175000D03*
%TO.P,C29,1*%
%TO.N,GND*%
X154150000Y-93075000D03*
%TD*%
D13*
%TO.P,C30,2*%
%TO.N,GND*%
X148850000Y-84450000D03*
%TO.P,C30,1*%
%TO.N,+12V*%
X150400000Y-84450000D03*
%TD*%
D10*
%TO.P,L8,2,2_2*%
%TO.N,Net-(IC1-RF-OUT+VDD)*%
X152125000Y-91125000D03*
%TO.P,L8,1,1_1*%
%TO.N,Net-(L8-Pad1)*%
X152125000Y-89000000D03*
%TD*%
D14*
%TO.P,R14,2*%
%TO.N,+12V*%
X153625000Y-84855000D03*
%TO.P,R14,1*%
%TO.N,Net-(L8-Pad1)*%
X153625000Y-85875000D03*
%TD*%
D11*
%TO.P,C34,2*%
%TO.N,Net-(IC1-RF-IN)*%
X143325000Y-88350000D03*
%TO.P,C34,1*%
%TO.N,IN_amp*%
X141425000Y-88350000D03*
%TD*%
%TO.P,C35,2*%
%TO.N,OUT_amp*%
X158500000Y-91200000D03*
%TO.P,C35,1*%
%TO.N,Net-(IC1-RF-OUT+VDD)*%
X156600000Y-91200000D03*
%TD*%
D15*
%TO.P,J1,2,Ext_2*%
%TO.N,GND*%
X133812500Y-88350000D03*
X133812500Y-94000000D03*
D16*
%TO.P,J1,1,In_1*%
%TO.N,IN_amp*%
X133562500Y-91175000D03*
%TD*%
D17*
%TO.P,J3,2,Ext_2*%
%TO.N,GND*%
X167937500Y-80537500D03*
X167937500Y-74887500D03*
D18*
%TO.P,J3,1,In_1*%
%TO.N,+12V*%
X168187500Y-77712500D03*
%TD*%
D19*
%TO.P,C36,2*%
%TO.N,GND*%
X152250000Y-81325000D03*
%TO.P,C36,1*%
%TO.N,+12V*%
X152250000Y-82875000D03*
%TD*%
D11*
%TO.P,C27,2*%
%TO.N,Net-(IC1-RF-IN)*%
X143350000Y-91200000D03*
%TO.P,C27,1*%
%TO.N,IN_amp*%
X141450000Y-91200000D03*
%TD*%
D15*
%TO.P,J4,2,Ext_2*%
%TO.N,GND*%
X133812500Y-59975000D03*
X133812500Y-65625000D03*
D16*
%TO.P,J4,1,In_1*%
%TO.N,TEST*%
X133562500Y-62800000D03*
%TD*%
D17*
%TO.P,J5,2,Ext_2*%
%TO.N,GND*%
X167937500Y-65625000D03*
X167937500Y-59975000D03*
D18*
%TO.P,J5,1,In_1*%
%TO.N,TEST*%
X168187500Y-62800000D03*
%TD*%
D20*
%TO.P,C32,2*%
%TO.N,Net-(IC1-VIADJ)*%
X148125000Y-88025000D03*
%TO.P,C32,1*%
%TO.N,GND*%
X149085000Y-88025000D03*
%TD*%
D12*
%TO.P,C28,2*%
%TO.N,Net-(IC1-RF-IN)*%
X145300000Y-91200000D03*
%TO.P,C28,1*%
%TO.N,GND*%
X145300000Y-93100000D03*
%TD*%
D21*
%TO.P,IC1,13,EP_13*%
%TO.N,GND*%
X148600000Y-91150000D03*
D22*
%TO.P,IC1,12,VIADJ_12*%
%TO.N,Net-(IC1-VIADJ)*%
X148090000Y-89700000D03*
%TO.P,IC1,11,NC_5_11*%
%TO.N,GND*%
X148600000Y-89700000D03*
%TO.P,IC1,10,NC_4_10*%
X149110000Y-89700000D03*
D23*
%TO.P,IC1,9,GND_4_9*%
X150050000Y-90640000D03*
%TO.P,IC1,8,RF-OUT+VDD_8*%
%TO.N,Net-(IC1-RF-OUT+VDD)*%
X150050000Y-91150000D03*
%TO.P,IC1,7,GND_3_7*%
%TO.N,GND*%
X150050000Y-91660000D03*
D22*
%TO.P,IC1,6,NC_3_6*%
X149110000Y-92600000D03*
%TO.P,IC1,5,NC_2_5*%
X148600000Y-92600000D03*
%TO.P,IC1,4,NC_1_4*%
X148090000Y-92600000D03*
D23*
%TO.P,IC1,3,GND_2_3*%
X147150000Y-91660000D03*
%TO.P,IC1,2,RF-IN_2*%
%TO.N,Net-(IC1-RF-IN)*%
X147150000Y-91150000D03*
%TO.P,IC1,1,GND_1_1*%
%TO.N,GND*%
X147150000Y-90640000D03*
%TD*%
D24*
%TO.P,R13,2*%
%TO.N,GND*%
X138075000Y-96635000D03*
%TO.P,R13,1*%
%TO.N,Net-(L7-Pad1)*%
X138075000Y-95615000D03*
%TD*%
D17*
%TO.P,J2,2,Ext_2*%
%TO.N,GND*%
X167912500Y-94000000D03*
X167912500Y-88350000D03*
D18*
%TO.P,J2,1,In_1*%
%TO.N,OUT_amp*%
X168162500Y-91175000D03*
%TD*%
D25*
%TO.P,L7,2,2_2*%
%TO.N,IN_amp*%
X138075000Y-91250000D03*
%TO.P,L7,1,1_1*%
%TO.N,Net-(L7-Pad1)*%
X138075000Y-93375000D03*
%TD*%
D26*
%TO.P,C31,2*%
%TO.N,GND*%
X154675000Y-82875000D03*
%TO.P,C31,1*%
%TO.N,+12V*%
X153715000Y-82875000D03*
%TD*%
D27*
%TO.N,GND*%
X156825000Y-94650000D03*
X136617647Y-61700000D03*
X152825000Y-96600000D03*
X141850000Y-96600000D03*
X150025000Y-89325000D03*
X136525000Y-87325000D03*
X151893382Y-63900000D03*
X144975000Y-90150000D03*
X141850000Y-97600000D03*
X144775000Y-94375000D03*
X148800000Y-98550000D03*
X155825000Y-96600000D03*
X165075000Y-75625000D03*
X137636029Y-61700000D03*
X167025000Y-58350000D03*
X161058823Y-61700000D03*
X168025000Y-73275000D03*
X149800000Y-94650000D03*
X146801470Y-61700000D03*
X149975000Y-88475000D03*
X159725000Y-90125000D03*
X157700000Y-87375000D03*
X157899682Y-78962500D03*
X148800000Y-93650000D03*
X133700000Y-95650000D03*
X147800000Y-96600000D03*
X168025000Y-86725000D03*
X168025000Y-82200000D03*
X164050000Y-92250000D03*
X146800000Y-94650000D03*
X154813337Y-78962500D03*
X149150006Y-80596191D03*
X140301785Y-92275000D03*
X155550000Y-92225000D03*
X145900000Y-94375000D03*
X148225000Y-90800000D03*
X165125000Y-66775000D03*
X165125000Y-58875000D03*
X163095588Y-63900000D03*
X141850000Y-95600000D03*
X146800000Y-95600000D03*
X140691176Y-61700000D03*
X162950000Y-92250000D03*
X141050000Y-92875000D03*
X138055357Y-90075000D03*
X165125000Y-64875000D03*
X143746323Y-61700000D03*
X147050000Y-87525000D03*
X140691176Y-63900000D03*
X159775000Y-89100000D03*
X144850000Y-98550000D03*
X143850000Y-98550000D03*
X149675734Y-79552209D03*
X133475000Y-67250000D03*
X165125000Y-60775000D03*
X156600000Y-87375000D03*
X151800000Y-96600000D03*
X151050000Y-90350000D03*
X142400000Y-92875000D03*
X144764705Y-63900000D03*
X140301785Y-90075000D03*
X150800000Y-98550000D03*
X164109455Y-76437500D03*
X142400000Y-86700000D03*
X162014809Y-78962500D03*
X155953365Y-76437500D03*
X144975000Y-89400000D03*
X162950000Y-90125000D03*
X155842119Y-78962500D03*
X165150000Y-88225000D03*
X161058823Y-63900000D03*
X147800000Y-97600000D03*
X148950000Y-90800000D03*
X152911764Y-61700000D03*
X165075000Y-79725000D03*
X149150000Y-81710595D03*
X147800000Y-95600000D03*
X165150000Y-94225000D03*
X134700000Y-95650000D03*
X152750000Y-93125000D03*
X163089944Y-76437500D03*
X140350000Y-88312500D03*
X156870901Y-78962500D03*
X166000000Y-73275000D03*
X136600000Y-58875000D03*
X156985294Y-63900000D03*
X165075000Y-73725000D03*
X153825000Y-96600000D03*
X169075000Y-95650000D03*
X152901802Y-76501173D03*
X165150000Y-95225000D03*
X136600000Y-59775000D03*
X167025000Y-95650000D03*
X149800000Y-98550000D03*
X165150000Y-92250000D03*
X156825000Y-97600000D03*
X136932142Y-92275000D03*
X135525000Y-67250000D03*
X165132352Y-63900000D03*
X165150000Y-93325000D03*
X154948529Y-61700000D03*
X160986028Y-78962500D03*
X155825000Y-94650000D03*
X144850000Y-96600000D03*
X149150000Y-82825000D03*
X146800000Y-96600000D03*
X154933854Y-76437500D03*
X142850000Y-98550000D03*
X142850000Y-95600000D03*
X164113970Y-61700000D03*
X142850000Y-97600000D03*
X143850000Y-95600000D03*
X136525000Y-88225000D03*
X139672794Y-63900000D03*
X144850000Y-97600000D03*
X136600000Y-66775000D03*
X145850000Y-98550000D03*
X146800000Y-98550000D03*
X162070432Y-76437500D03*
X150800000Y-97600000D03*
X148838235Y-63900000D03*
X154675000Y-88750000D03*
X165101154Y-78962500D03*
X136600000Y-65775000D03*
X154825000Y-96600000D03*
X139178571Y-90075000D03*
X143575000Y-92875000D03*
X134475000Y-58350000D03*
X155450000Y-89375000D03*
X165075000Y-74625000D03*
X149856617Y-61700000D03*
X138055357Y-92275000D03*
X148925000Y-91475000D03*
X166000000Y-86725000D03*
X143575000Y-86700000D03*
X161925000Y-90125000D03*
X156600000Y-92625000D03*
X147050000Y-85525000D03*
X150975000Y-89325000D03*
X143825000Y-93875000D03*
X169075000Y-58350000D03*
X167025000Y-86725000D03*
X144975000Y-85525000D03*
X164113970Y-63900000D03*
X143746323Y-63900000D03*
X139178571Y-92275000D03*
X162077205Y-61700000D03*
X165150000Y-90125000D03*
X136525000Y-95225000D03*
X152825000Y-97600000D03*
X146050000Y-85525000D03*
X165150000Y-87325000D03*
X166000000Y-95650000D03*
X169075000Y-67250000D03*
X150875000Y-63900000D03*
X147800000Y-98550000D03*
X132675000Y-95650000D03*
X153600000Y-94250000D03*
X148200000Y-91475000D03*
X167025000Y-82200000D03*
X139000000Y-96625000D03*
X134700000Y-86725000D03*
X149856617Y-63900000D03*
X147819852Y-63900000D03*
X146801470Y-63900000D03*
X149800000Y-93650000D03*
X145783088Y-61700000D03*
X168025000Y-67250000D03*
X139672794Y-61700000D03*
X168025000Y-95650000D03*
X158800000Y-87375000D03*
X141850000Y-94600000D03*
X153825000Y-79025000D03*
X145783088Y-63900000D03*
X153600000Y-89950000D03*
X165150000Y-89225000D03*
X150800000Y-95600000D03*
X151050000Y-91950000D03*
X142850000Y-96600000D03*
X169075000Y-73275000D03*
X136600000Y-60775000D03*
X146050000Y-87525000D03*
X135750000Y-86725000D03*
X145850000Y-96600000D03*
X134475000Y-67250000D03*
X153914343Y-76437500D03*
X143850000Y-94600000D03*
X165125000Y-65775000D03*
X156825000Y-96600000D03*
X165132352Y-61700000D03*
X154825000Y-97600000D03*
X158800000Y-92625000D03*
X157992388Y-76437500D03*
X153825000Y-97600000D03*
X144975000Y-86525000D03*
X160040441Y-61700000D03*
X141050000Y-86700000D03*
X155966911Y-61700000D03*
X147050000Y-86525000D03*
X142727941Y-63900000D03*
X156985294Y-61700000D03*
X160031410Y-76437500D03*
X152428185Y-80368870D03*
X168025000Y-58350000D03*
X146050000Y-89400000D03*
X164050000Y-90125000D03*
X165128966Y-76437500D03*
X153930147Y-63900000D03*
X147800000Y-93650000D03*
X163043591Y-78962500D03*
X153930147Y-61700000D03*
X169075000Y-82200000D03*
X142727941Y-61700000D03*
X146800000Y-97600000D03*
X143850000Y-96600000D03*
X155825000Y-95650000D03*
X161925000Y-92250000D03*
X148838235Y-61700000D03*
X153600000Y-88750000D03*
X132450000Y-58350000D03*
X149800000Y-96600000D03*
X136525000Y-93325000D03*
X164072373Y-78962500D03*
X151800000Y-97600000D03*
X143850000Y-97600000D03*
X159725000Y-92250000D03*
X159957246Y-78962500D03*
X144975000Y-87525000D03*
X169075000Y-86725000D03*
X135525000Y-58350000D03*
X148800000Y-95600000D03*
X156972876Y-76437500D03*
X141850000Y-98550000D03*
X158928464Y-78962500D03*
X148800000Y-94650000D03*
X155825000Y-97600000D03*
X150800000Y-96600000D03*
X154825000Y-98550000D03*
X150875000Y-61700000D03*
X155550000Y-93125000D03*
X138654411Y-63900000D03*
X165075000Y-80625000D03*
X146050000Y-86525000D03*
X156825000Y-98550000D03*
X159011899Y-76437500D03*
X135750000Y-95650000D03*
X147800000Y-94650000D03*
X151893382Y-61700000D03*
X152039742Y-77188201D03*
X163095588Y-61700000D03*
X136525000Y-94225000D03*
X167025000Y-67250000D03*
X165125000Y-59775000D03*
X154700000Y-94250000D03*
X166000000Y-58350000D03*
X160825000Y-92250000D03*
X138654411Y-61700000D03*
X167025000Y-73275000D03*
X136932142Y-90075000D03*
X160825000Y-90125000D03*
X158003676Y-61700000D03*
X150800000Y-93650000D03*
X149975000Y-87525000D03*
X136525000Y-89225000D03*
X153825000Y-98550000D03*
X136600000Y-64875000D03*
X166000000Y-82200000D03*
X132450000Y-67250000D03*
X150800000Y-94650000D03*
X160040441Y-63900000D03*
X155825000Y-98550000D03*
X137125000Y-96625000D03*
X142850000Y-94600000D03*
X155450000Y-88250000D03*
X144975000Y-88500000D03*
X150463737Y-78764206D03*
X150975000Y-88475000D03*
X162077205Y-63900000D03*
X152911764Y-63900000D03*
X147050000Y-88475000D03*
X148800000Y-97600000D03*
X151800000Y-94650000D03*
X165075000Y-81625000D03*
X132675000Y-86725000D03*
X149800000Y-95600000D03*
X159022058Y-63900000D03*
X151800000Y-98550000D03*
X159775000Y-88250000D03*
X137636029Y-63900000D03*
X141709558Y-61700000D03*
X151251740Y-77976203D03*
X148800000Y-96600000D03*
X158003676Y-63900000D03*
X155966911Y-63900000D03*
X147819852Y-61700000D03*
X152300000Y-92200000D03*
X136617647Y-63900000D03*
X146800000Y-93650000D03*
X141709558Y-63900000D03*
X146050000Y-90200000D03*
X133700000Y-86725000D03*
X149800000Y-97600000D03*
X151800000Y-95600000D03*
X166000000Y-67250000D03*
X146050000Y-88475000D03*
X144764705Y-61700000D03*
X156825000Y-95650000D03*
X157700000Y-92625000D03*
X154700000Y-89950000D03*
X133475000Y-58350000D03*
X145850000Y-97600000D03*
X159022058Y-61700000D03*
X154948529Y-63900000D03*
X161050921Y-76437500D03*
X153156370Y-79640685D03*
X152825000Y-98550000D03*
%TD*%
%TO.N,Net-(IC1-RF-IN)*%
D28*
X147150000Y-91150000D02*
X145350000Y-91150000D01*
D29*
X143350000Y-91200000D02*
X145300000Y-91200000D01*
%TO.N,Net-(IC1-RF-OUT+VDD)*%
X152125000Y-91125000D02*
X154100000Y-91125000D01*
D30*
X150050000Y-91150000D02*
X152100000Y-91150000D01*
%TO.N,IN_amp*%
D31*
X141425000Y-91175000D02*
X141450000Y-91200000D01*
%TO.N,OUT_amp*%
D29*
X158500000Y-88800000D02*
X158500000Y-91200000D01*
%TO.N,Net-(IC1-VIADJ)*%
D28*
X148125000Y-88025000D02*
X148090000Y-88060000D01*
%TO.N,+12V*%
D32*
X153287500Y-77712500D02*
X150400000Y-80600000D01*
%TO.N,IN_amp*%
D29*
X133562500Y-91175000D02*
X141425000Y-91175000D01*
%TO.N,+12V*%
D32*
X150400000Y-80600000D02*
X150400000Y-82825000D01*
%TO.N,OUT_amp*%
D29*
X158500000Y-91200000D02*
X168137500Y-91200000D01*
%TO.N,IN_amp*%
X141425000Y-88425000D02*
X141425000Y-91250000D01*
%TO.N,Net-(L7-Pad1)*%
X138075000Y-93375000D02*
X138075000Y-95340000D01*
%TO.N,+12V*%
D32*
X168187500Y-77712500D02*
X153287500Y-77712500D01*
%TO.N,TEST*%
D29*
X133562500Y-62800000D02*
X168187500Y-62800000D01*
%TO.N,Net-(IC1-VIADJ)*%
D28*
X148090000Y-88060000D02*
X148090000Y-89700000D01*
%TO.N,Net-(IC1-RF-IN)*%
D29*
X143325000Y-88350000D02*
X143325000Y-91175000D01*
%TO.N,Net-(IC1-RF-OUT+VDD)*%
D28*
X152100000Y-91150000D02*
X152125000Y-91125000D01*
D29*
X156600000Y-91125000D02*
X154175000Y-91125000D01*
X156600000Y-91200000D02*
X156600000Y-88800000D01*
%TO.N,Net-(L8-Pad1)*%
X152125000Y-86625000D02*
X152125000Y-89000000D01*
%TD*%
%TA.AperFunction,Conductor*%
%TO.N,Net-(L8-Pad1)*%
G36*
X154193106Y-85605023D02*
G01*
X154208104Y-85609427D01*
X154266855Y-85647172D01*
X154268042Y-85648541D01*
X154295518Y-85703402D01*
X154297163Y-85710960D01*
X154300000Y-85737331D01*
X154300000Y-87183170D01*
X154294975Y-87218114D01*
X154290570Y-87233112D01*
X154252827Y-87291855D01*
X154251458Y-87293042D01*
X154196597Y-87320518D01*
X154189039Y-87322163D01*
X154162668Y-87325000D01*
X151416830Y-87325000D01*
X151381889Y-87319975D01*
X151366890Y-87315570D01*
X151308144Y-87277827D01*
X151306957Y-87276458D01*
X151279477Y-87221583D01*
X151277832Y-87214021D01*
X151275000Y-87187668D01*
X151275000Y-85741829D01*
X151280023Y-85706893D01*
X151284427Y-85691895D01*
X151322172Y-85633144D01*
X151323541Y-85631957D01*
X151378420Y-85604477D01*
X151385979Y-85602833D01*
X151412332Y-85600000D01*
X154158170Y-85600000D01*
X154193106Y-85605023D01*
G37*
%TD.AperFunction*%
%TD*%
%TA.AperFunction,Conductor*%
%TO.N,GND*%
G36*
X131925166Y-63540372D02*
G01*
X131933917Y-63543962D01*
X131960485Y-63558912D01*
X131999618Y-63587793D01*
X132042342Y-63602743D01*
X132042345Y-63602744D01*
X132127799Y-63632646D01*
X132127803Y-63632647D01*
X132146242Y-63634375D01*
X132158230Y-63635500D01*
X132158234Y-63635500D01*
X132158239Y-63635500D01*
X134966770Y-63635500D01*
X134966771Y-63635500D01*
X134991420Y-63633188D01*
X134994996Y-63633020D01*
X134997196Y-63632646D01*
X134997199Y-63632646D01*
X134997201Y-63632646D01*
X135063835Y-63609329D01*
X135125382Y-63587793D01*
X135129414Y-63584817D01*
X135160503Y-63568114D01*
X135189496Y-63557525D01*
X135232035Y-63550000D01*
X166514777Y-63550000D01*
X166549712Y-63555023D01*
X166579321Y-63563717D01*
X166618017Y-63582922D01*
X166624613Y-63587790D01*
X166624615Y-63587791D01*
X166624618Y-63587793D01*
X166667345Y-63602744D01*
X166752799Y-63632646D01*
X166752803Y-63632647D01*
X166771242Y-63634375D01*
X166783230Y-63635500D01*
X166783234Y-63635500D01*
X166783239Y-63635500D01*
X169591770Y-63635500D01*
X169591771Y-63635500D01*
X169616420Y-63633188D01*
X169619996Y-63633020D01*
X169622196Y-63632646D01*
X169622199Y-63632646D01*
X169622201Y-63632646D01*
X169688835Y-63609329D01*
X169750382Y-63587793D01*
X169762525Y-63578830D01*
X169793609Y-63562130D01*
X169805655Y-63557730D01*
X169875377Y-63553223D01*
X169936469Y-63587126D01*
X169968439Y-63643934D01*
X169970748Y-63653106D01*
X169974500Y-63683378D01*
X169974500Y-76826653D01*
X169969476Y-76861590D01*
X169965865Y-76873887D01*
X169928090Y-76932665D01*
X169864534Y-76961688D01*
X169799830Y-76953673D01*
X169791083Y-76950085D01*
X169764508Y-76935132D01*
X169750382Y-76924706D01*
X169622204Y-76879854D01*
X169622202Y-76879853D01*
X169622200Y-76879853D01*
X169591770Y-76877000D01*
X169591766Y-76877000D01*
X169591764Y-76877000D01*
X168364985Y-76877000D01*
X168352822Y-76876402D01*
X168340749Y-76875212D01*
X168328725Y-76873428D01*
X168312507Y-76870202D01*
X168308452Y-76869396D01*
X168289860Y-76865698D01*
X168271269Y-76862000D01*
X168271268Y-76862000D01*
X168271267Y-76862000D01*
X153203733Y-76862000D01*
X153203728Y-76862000D01*
X153203726Y-76862000D01*
X153039442Y-76894678D01*
X153039418Y-76894683D01*
X153039409Y-76894686D01*
X153006312Y-76908396D01*
X152994085Y-76913461D01*
X152994084Y-76913461D01*
X152884656Y-76958786D01*
X152884638Y-76958794D01*
X152884623Y-76958803D01*
X152745335Y-77051873D01*
X152745334Y-77051874D01*
X152745328Y-77051879D01*
X149739379Y-80057828D01*
X149739374Y-80057834D01*
X149739373Y-80057835D01*
X149646303Y-80197123D01*
X149646294Y-80197138D01*
X149646286Y-80197156D01*
X149600961Y-80306584D01*
X149600961Y-80306586D01*
X149582186Y-80351909D01*
X149582183Y-80351918D01*
X149582178Y-80351942D01*
X149549500Y-80516225D01*
X149549500Y-82100217D01*
X149531140Y-82162741D01*
X149531467Y-82162907D01*
X149530579Y-82164652D01*
X149529815Y-82167256D01*
X149527520Y-82170668D01*
X149476560Y-82270890D01*
X149456877Y-82337921D01*
X149456876Y-82337928D01*
X149448215Y-82398167D01*
X149444500Y-82424002D01*
X149444500Y-82734011D01*
X149444934Y-82747277D01*
X149445000Y-82751332D01*
X149445000Y-82898668D01*
X149444934Y-82902722D01*
X149444500Y-82915981D01*
X149444500Y-85151000D01*
X149444501Y-85151009D01*
X149451481Y-85215935D01*
X149451483Y-85215947D01*
X149462688Y-85267453D01*
X149473644Y-85305654D01*
X149473646Y-85305658D01*
X149530323Y-85402568D01*
X149530325Y-85402571D01*
X149576081Y-85455376D01*
X149576091Y-85455387D01*
X149620807Y-85497548D01*
X149620809Y-85497549D01*
X149620813Y-85497553D01*
X149720889Y-85548439D01*
X149787928Y-85568124D01*
X149874000Y-85580500D01*
X150847853Y-85580500D01*
X150914892Y-85600185D01*
X150960647Y-85652989D01*
X150971537Y-85713346D01*
X150969500Y-85741826D01*
X150969500Y-87187674D01*
X150971245Y-87220268D01*
X150971246Y-87220282D01*
X150974080Y-87246656D01*
X150979316Y-87278969D01*
X150980958Y-87286521D01*
X150980959Y-87286525D01*
X151006310Y-87358366D01*
X151006314Y-87358376D01*
X151033794Y-87413251D01*
X151076138Y-87476591D01*
X151077325Y-87477960D01*
X151143012Y-87534851D01*
X151201758Y-87572594D01*
X151201765Y-87572597D01*
X151280799Y-87608688D01*
X151280803Y-87608689D01*
X151280805Y-87608690D01*
X151295804Y-87613095D01*
X151323075Y-87619029D01*
X151338382Y-87622360D01*
X151338383Y-87622360D01*
X151338401Y-87622364D01*
X151368152Y-87626642D01*
X151431704Y-87655667D01*
X151469478Y-87714446D01*
X151474500Y-87749379D01*
X151474500Y-88388398D01*
X151469476Y-88423335D01*
X151462064Y-88448576D01*
X151430769Y-88501320D01*
X151400344Y-88531744D01*
X151390453Y-88551159D01*
X151390451Y-88551162D01*
X151340047Y-88650080D01*
X151340045Y-88650087D01*
X151324500Y-88748242D01*
X151324500Y-89251750D01*
X151340047Y-89349917D01*
X151341032Y-89352437D01*
X151343336Y-89356373D01*
X151400343Y-89468253D01*
X151400345Y-89468255D01*
X151400346Y-89468256D01*
X151494243Y-89562153D01*
X151494244Y-89562153D01*
X151494249Y-89562158D01*
X151494250Y-89562159D01*
X151494346Y-89562207D01*
X151538759Y-89584837D01*
X151571736Y-89615982D01*
X151607777Y-89621691D01*
X151617329Y-89623591D01*
X151617344Y-89623594D01*
X151622214Y-89623978D01*
X151710744Y-89638000D01*
X151710749Y-89638000D01*
X151710754Y-89638000D01*
X151979783Y-89638000D01*
X151991936Y-89638597D01*
X152004009Y-89639786D01*
X152016038Y-89641570D01*
X152060929Y-89650500D01*
X152060931Y-89650500D01*
X152189070Y-89650500D01*
X152233963Y-89641569D01*
X152245991Y-89639786D01*
X152258065Y-89638597D01*
X152270217Y-89638000D01*
X152539251Y-89638000D01*
X152627785Y-89623978D01*
X152632654Y-89623594D01*
X152632670Y-89623591D01*
X152636791Y-89622771D01*
X152637419Y-89622451D01*
X152637420Y-89622451D01*
X152755751Y-89562158D01*
X152849658Y-89468251D01*
X152909951Y-89349920D01*
X152909951Y-89349919D01*
X152910271Y-89349291D01*
X152911091Y-89345170D01*
X152911094Y-89345155D01*
X152911478Y-89340283D01*
X152925500Y-89251750D01*
X152925500Y-88748247D01*
X152909953Y-88650084D01*
X152909951Y-88650080D01*
X152849658Y-88531749D01*
X152849657Y-88531748D01*
X152849656Y-88531746D01*
X152824426Y-88506516D01*
X152803274Y-88478260D01*
X152790667Y-88455171D01*
X152775500Y-88395746D01*
X152775500Y-87754500D01*
X152795185Y-87687461D01*
X152847989Y-87641706D01*
X152899500Y-87630500D01*
X154162667Y-87630500D01*
X154162668Y-87630500D01*
X154195345Y-87628747D01*
X154221716Y-87625910D01*
X154254010Y-87620674D01*
X154261568Y-87619029D01*
X154333402Y-87593675D01*
X154388263Y-87566199D01*
X154388267Y-87566195D01*
X154388270Y-87566195D01*
X154435152Y-87534851D01*
X154451591Y-87523861D01*
X154452960Y-87522674D01*
X154509848Y-87456993D01*
X154547591Y-87398250D01*
X154583689Y-87319203D01*
X154588094Y-87304205D01*
X154597364Y-87261598D01*
X154602389Y-87226654D01*
X154605500Y-87183170D01*
X154605500Y-85737331D01*
X154603747Y-85704654D01*
X154600910Y-85678283D01*
X154595674Y-85645989D01*
X154594029Y-85638431D01*
X154568675Y-85566597D01*
X154541199Y-85511736D01*
X154525711Y-85488570D01*
X154504817Y-85421899D01*
X154518264Y-85363455D01*
X154548439Y-85304111D01*
X154568124Y-85237072D01*
X154580500Y-85151000D01*
X154580500Y-83463187D01*
X154580500Y-83463179D01*
X154577972Y-83435479D01*
X154575458Y-83407913D01*
X154567340Y-83363785D01*
X154560498Y-83334678D01*
X154510188Y-83234310D01*
X154467936Y-83178666D01*
X154467934Y-83178663D01*
X154467236Y-83177975D01*
X154454550Y-83163335D01*
X154425394Y-83123831D01*
X154408112Y-83091125D01*
X154406949Y-83087799D01*
X154400000Y-83046870D01*
X154400000Y-82703125D01*
X154406958Y-82662172D01*
X154421824Y-82619686D01*
X154426689Y-82607798D01*
X154427594Y-82605878D01*
X154427595Y-82605872D01*
X154427596Y-82605871D01*
X154429886Y-82599069D01*
X154430129Y-82599151D01*
X154433161Y-82589311D01*
X154446171Y-82557605D01*
X154461210Y-82510339D01*
X154465923Y-82398167D01*
X154455979Y-82329009D01*
X154441149Y-82269342D01*
X154384470Y-82172429D01*
X154338715Y-82119625D01*
X154338713Y-82119623D01*
X154338703Y-82119612D01*
X154293987Y-82077451D01*
X154293984Y-82077449D01*
X154293982Y-82077447D01*
X154193906Y-82026561D01*
X154193905Y-82026560D01*
X154193904Y-82026560D01*
X154126873Y-82006877D01*
X154126867Y-82006876D01*
X154040795Y-81994500D01*
X154040792Y-81994500D01*
X151374500Y-81994500D01*
X151307461Y-81974815D01*
X151261706Y-81922011D01*
X151250500Y-81870500D01*
X151250500Y-81021480D01*
X151255522Y-80986547D01*
X151262934Y-80961302D01*
X151294228Y-80908560D01*
X153590865Y-78611923D01*
X153619115Y-78590775D01*
X153642207Y-78578167D01*
X153701632Y-78563000D01*
X168293375Y-78563000D01*
X168305988Y-78556112D01*
X168308041Y-78555684D01*
X168328735Y-78551567D01*
X168340761Y-78549785D01*
X168352827Y-78548597D01*
X168364977Y-78548000D01*
X169591771Y-78548000D01*
X169616420Y-78545688D01*
X169619996Y-78545520D01*
X169622196Y-78545146D01*
X169622199Y-78545146D01*
X169622201Y-78545146D01*
X169688835Y-78521829D01*
X169750382Y-78500293D01*
X169762525Y-78491330D01*
X169793609Y-78474630D01*
X169805655Y-78470230D01*
X169875377Y-78465723D01*
X169936469Y-78499626D01*
X169968439Y-78556434D01*
X169970748Y-78565606D01*
X169974500Y-78595878D01*
X169974500Y-90307604D01*
X169969476Y-90342541D01*
X169965865Y-90354838D01*
X169928090Y-90413616D01*
X169864534Y-90442639D01*
X169799825Y-90434622D01*
X169791079Y-90431034D01*
X169764510Y-90416084D01*
X169725382Y-90387206D01*
X169597204Y-90342354D01*
X169597202Y-90342353D01*
X169597200Y-90342353D01*
X169566770Y-90339500D01*
X169566766Y-90339500D01*
X169566764Y-90339500D01*
X166758234Y-90339500D01*
X166758230Y-90339500D01*
X166739574Y-90341249D01*
X166733569Y-90341812D01*
X166729999Y-90341978D01*
X166727797Y-90342353D01*
X166599615Y-90387207D01*
X166599610Y-90387209D01*
X166561709Y-90415182D01*
X166530622Y-90431884D01*
X166501637Y-90442472D01*
X166459091Y-90450000D01*
X159391830Y-90450000D01*
X159356889Y-90444975D01*
X159341890Y-90440570D01*
X159283144Y-90402827D01*
X159281957Y-90401458D01*
X159254477Y-90346583D01*
X159252832Y-90339021D01*
X159250000Y-90312668D01*
X159250000Y-88799998D01*
X159249999Y-88799996D01*
X159249996Y-88799953D01*
X159240194Y-88681674D01*
X159240087Y-88679098D01*
X159239770Y-88676554D01*
X159233066Y-88650080D01*
X159214760Y-88577794D01*
X159213611Y-88572827D01*
X159209070Y-88551162D01*
X159209071Y-88551162D01*
X159203136Y-88522851D01*
X159200500Y-88497418D01*
X159200500Y-88270728D01*
X159198188Y-88246079D01*
X159198020Y-88242502D01*
X159197646Y-88240300D01*
X159197646Y-88240298D01*
X159152793Y-88112119D01*
X159152792Y-88112117D01*
X159152792Y-88112116D01*
X159072151Y-88002851D01*
X159072150Y-88002850D01*
X158962882Y-87922207D01*
X158962880Y-87922206D01*
X158834704Y-87877354D01*
X158834702Y-87877353D01*
X158834700Y-87877353D01*
X158804270Y-87874500D01*
X158804266Y-87874500D01*
X158804264Y-87874500D01*
X158195734Y-87874500D01*
X158195730Y-87874500D01*
X158177074Y-87876249D01*
X158171069Y-87876812D01*
X158167499Y-87876978D01*
X158165297Y-87877353D01*
X158037118Y-87922206D01*
X157927849Y-88002849D01*
X157847206Y-88112118D01*
X157802353Y-88240297D01*
X157801978Y-88242499D01*
X157801812Y-88246069D01*
X157799500Y-88270733D01*
X157799500Y-88497414D01*
X157798443Y-88501011D01*
X157796862Y-88522857D01*
X157786381Y-88572851D01*
X157785225Y-88577848D01*
X157760228Y-88676559D01*
X157750000Y-88799980D01*
X157750000Y-91200016D01*
X157751925Y-91223240D01*
X157752242Y-91228334D01*
X157752455Y-91233461D01*
X157752562Y-91238608D01*
X157752562Y-91261935D01*
X157756399Y-91284938D01*
X157756158Y-91286937D01*
X157757139Y-91290014D01*
X157757774Y-91295112D01*
X157758301Y-91300193D01*
X157759764Y-91317838D01*
X157760228Y-91323436D01*
X157760230Y-91323445D01*
X157760230Y-91323447D01*
X157764044Y-91338509D01*
X157764861Y-91343125D01*
X157766531Y-91349863D01*
X157766531Y-91349865D01*
X157767531Y-91353902D01*
X157769472Y-91363276D01*
X157771968Y-91378229D01*
X157772951Y-91384119D01*
X157772954Y-91384130D01*
X157780526Y-91406185D01*
X157782096Y-91411086D01*
X157783553Y-91415983D01*
X157784902Y-91420882D01*
X157785160Y-91421900D01*
X157786317Y-91426900D01*
X157796857Y-91477134D01*
X157799500Y-91502597D01*
X157799500Y-91729265D01*
X157801812Y-91753929D01*
X157801978Y-91757499D01*
X157802352Y-91759701D01*
X157839426Y-91865646D01*
X157842699Y-91874999D01*
X157847207Y-91887882D01*
X157927850Y-91997150D01*
X157989154Y-92042394D01*
X158037118Y-92077793D01*
X158165299Y-92122646D01*
X158165303Y-92122647D01*
X158183742Y-92124375D01*
X158195730Y-92125500D01*
X158195734Y-92125500D01*
X158195739Y-92125500D01*
X158804270Y-92125500D01*
X158804271Y-92125500D01*
X158828920Y-92123188D01*
X158832498Y-92123020D01*
X158834699Y-92122646D01*
X158834701Y-92122646D01*
X158898790Y-92100219D01*
X158962882Y-92077793D01*
X159042255Y-92019213D01*
X159047452Y-92017314D01*
X159080422Y-91992280D01*
X159080424Y-91992282D01*
X159101912Y-91975966D01*
X159154484Y-91952770D01*
X159157696Y-91952179D01*
X159158451Y-91952041D01*
X159180855Y-91950000D01*
X166529515Y-91950000D01*
X166559360Y-91953645D01*
X166602179Y-91964263D01*
X166613278Y-91967573D01*
X166617978Y-91969217D01*
X166627519Y-91972555D01*
X166627527Y-91972561D01*
X166627528Y-91972559D01*
X166727793Y-92007644D01*
X166727799Y-92007646D01*
X166727804Y-92007646D01*
X166727807Y-92007647D01*
X166739392Y-92008733D01*
X166758230Y-92010500D01*
X166758234Y-92010500D01*
X166758239Y-92010500D01*
X169566770Y-92010500D01*
X169566771Y-92010500D01*
X169591420Y-92008188D01*
X169594998Y-92008020D01*
X169597199Y-92007646D01*
X169597201Y-92007646D01*
X169661290Y-91985219D01*
X169725382Y-91962793D01*
X169762520Y-91935383D01*
X169793607Y-91918680D01*
X169800563Y-91916139D01*
X169805645Y-91914282D01*
X169875366Y-91909768D01*
X169936462Y-91943666D01*
X169968441Y-92000486D01*
X169970750Y-92009665D01*
X169974500Y-92039924D01*
X169974500Y-99082670D01*
X169969475Y-99117614D01*
X169965070Y-99132612D01*
X169927327Y-99191355D01*
X169925958Y-99192542D01*
X169871097Y-99220018D01*
X169863539Y-99221663D01*
X169837168Y-99224500D01*
X131892330Y-99224500D01*
X131857389Y-99219475D01*
X131842390Y-99215070D01*
X131783644Y-99177327D01*
X131782457Y-99175958D01*
X131754977Y-99121083D01*
X131753332Y-99113521D01*
X131750500Y-99087168D01*
X131750500Y-93123242D01*
X137274500Y-93123242D01*
X137274500Y-93626756D01*
X137290046Y-93724915D01*
X137298963Y-93742416D01*
X137298968Y-93742423D01*
X137304822Y-93753913D01*
X137314908Y-93781252D01*
X137321573Y-93809009D01*
X137325000Y-93837961D01*
X137325000Y-95340018D01*
X137335228Y-95463437D01*
X137335228Y-95463439D01*
X137365638Y-95583526D01*
X137365967Y-95584411D01*
X137366893Y-95586385D01*
X137415393Y-95696958D01*
X137415395Y-95696962D01*
X137483137Y-95800648D01*
X137483143Y-95800656D01*
X137483151Y-95800667D01*
X137483154Y-95800670D01*
X137567026Y-95891779D01*
X137569758Y-95894511D01*
X137569661Y-95894607D01*
X137581586Y-95907151D01*
X137600326Y-95930666D01*
X137604923Y-95936817D01*
X137610933Y-95945402D01*
X137610934Y-95945403D01*
X137610935Y-95945404D01*
X137694596Y-96029065D01*
X137801827Y-96079068D01*
X137850683Y-96085500D01*
X137850684Y-96085500D01*
X137986051Y-96085500D01*
X137996279Y-96085923D01*
X138006440Y-96086764D01*
X138009374Y-96087130D01*
X138013062Y-96087437D01*
X138013066Y-96087438D01*
X138013067Y-96087438D01*
X138013070Y-96087438D01*
X138136934Y-96087438D01*
X138136939Y-96087438D01*
X138140604Y-96087133D01*
X138143546Y-96086765D01*
X138153732Y-96085921D01*
X138163948Y-96085500D01*
X138299311Y-96085500D01*
X138299317Y-96085500D01*
X138315601Y-96083356D01*
X138348173Y-96079068D01*
X138455404Y-96029065D01*
X138539065Y-95945404D01*
X138539068Y-95945395D01*
X138545049Y-95936852D01*
X138549639Y-95930710D01*
X138568355Y-95907224D01*
X138581343Y-95893280D01*
X138582943Y-95891805D01*
X138582961Y-95891792D01*
X138666855Y-95800659D01*
X138734605Y-95696960D01*
X138784362Y-95583524D01*
X138814770Y-95463445D01*
X138825000Y-95340000D01*
X138825000Y-93837961D01*
X138828426Y-93809013D01*
X138835090Y-93781256D01*
X138845174Y-93753918D01*
X138848754Y-93746893D01*
X138858410Y-93734645D01*
X138859189Y-93729728D01*
X138861091Y-93720168D01*
X138861094Y-93720152D01*
X138861478Y-93715283D01*
X138875500Y-93626750D01*
X138875500Y-93123247D01*
X138859953Y-93025084D01*
X138859951Y-93025080D01*
X138859950Y-93025079D01*
X138799658Y-92906749D01*
X138799654Y-92906745D01*
X138799653Y-92906743D01*
X138705756Y-92812846D01*
X138705753Y-92812844D01*
X138705751Y-92812842D01*
X138647912Y-92783371D01*
X138636577Y-92773601D01*
X138627023Y-92758820D01*
X138587418Y-92752547D01*
X138587417Y-92752547D01*
X138496543Y-92738154D01*
X138480823Y-92734603D01*
X138469320Y-92731204D01*
X138451982Y-92726082D01*
X138428102Y-92716220D01*
X138420948Y-92712348D01*
X138381274Y-92690878D01*
X138378973Y-92689492D01*
X138378559Y-92689290D01*
X138376587Y-92688275D01*
X138375717Y-92687980D01*
X138350395Y-92679287D01*
X138320649Y-92658217D01*
X138209656Y-92639696D01*
X138136934Y-92627562D01*
X138136933Y-92627562D01*
X138013067Y-92627562D01*
X138013066Y-92627562D01*
X137997781Y-92630112D01*
X137890887Y-92647948D01*
X137773731Y-92688169D01*
X137773724Y-92688172D01*
X137721894Y-92716221D01*
X137698012Y-92726083D01*
X137669188Y-92734599D01*
X137653452Y-92738154D01*
X137562587Y-92752545D01*
X137562579Y-92752548D01*
X137483692Y-92792744D01*
X137444243Y-92812844D01*
X137350347Y-92906740D01*
X137350338Y-92906755D01*
X137290048Y-93025079D01*
X137290045Y-93025087D01*
X137274500Y-93123242D01*
X131750500Y-93123242D01*
X131750500Y-92042394D01*
X131755521Y-92007466D01*
X131757570Y-92000488D01*
X131759132Y-91995167D01*
X131796902Y-91936388D01*
X131860456Y-91907360D01*
X131925166Y-91915372D01*
X131933917Y-91918962D01*
X131960485Y-91933912D01*
X131999618Y-91962793D01*
X132035550Y-91975366D01*
X132097801Y-91997149D01*
X132127284Y-92007466D01*
X132127799Y-92007646D01*
X132127804Y-92007646D01*
X132127807Y-92007647D01*
X132139392Y-92008733D01*
X132158230Y-92010500D01*
X132158234Y-92010500D01*
X132158239Y-92010500D01*
X134966770Y-92010500D01*
X134966771Y-92010500D01*
X134991420Y-92008188D01*
X134994998Y-92008020D01*
X134997199Y-92007646D01*
X134997201Y-92007646D01*
X135061290Y-91985219D01*
X135125382Y-91962793D01*
X135129414Y-91959817D01*
X135160503Y-91943114D01*
X135189496Y-91932525D01*
X135232035Y-91925000D01*
X140744173Y-91925000D01*
X140779107Y-91930023D01*
X140800713Y-91936367D01*
X140850583Y-91964877D01*
X140853522Y-91967632D01*
X140868487Y-91984464D01*
X140869045Y-91985220D01*
X140877850Y-91997150D01*
X140987117Y-92077792D01*
X140987118Y-92077793D01*
X141115299Y-92122646D01*
X141115303Y-92122647D01*
X141133742Y-92124375D01*
X141145730Y-92125500D01*
X141145734Y-92125500D01*
X141145739Y-92125500D01*
X141754270Y-92125500D01*
X141754271Y-92125500D01*
X141778920Y-92123188D01*
X141782498Y-92123020D01*
X141784699Y-92122646D01*
X141784701Y-92122646D01*
X141848790Y-92100219D01*
X141912882Y-92077793D01*
X142022150Y-91997150D01*
X142102793Y-91887882D01*
X142105958Y-91878833D01*
X142118004Y-91853816D01*
X142132499Y-91830747D01*
X142149808Y-91809044D01*
X142168883Y-91789971D01*
X142237580Y-91687158D01*
X142270166Y-91638390D01*
X142270167Y-91638388D01*
X142339933Y-91469958D01*
X142356395Y-91387198D01*
X142368134Y-91353924D01*
X142372838Y-91344931D01*
X142421353Y-91294651D01*
X142489349Y-91278582D01*
X142555239Y-91301825D01*
X142594132Y-91347980D01*
X142596058Y-91351923D01*
X142604845Y-91375905D01*
X142614355Y-91413460D01*
X142614357Y-91413466D01*
X142614356Y-91413466D01*
X142615637Y-91418523D01*
X142633891Y-91460139D01*
X142641694Y-91484497D01*
X142646860Y-91509131D01*
X142649500Y-91534581D01*
X142649500Y-91729265D01*
X142651812Y-91753929D01*
X142651978Y-91757499D01*
X142652352Y-91759701D01*
X142689426Y-91865646D01*
X142692699Y-91874999D01*
X142697207Y-91887882D01*
X142777850Y-91997150D01*
X142839154Y-92042394D01*
X142887118Y-92077793D01*
X143015299Y-92122646D01*
X143015303Y-92122647D01*
X143033742Y-92124375D01*
X143045730Y-92125500D01*
X143045734Y-92125500D01*
X143045739Y-92125500D01*
X143654270Y-92125500D01*
X143654271Y-92125500D01*
X143678920Y-92123188D01*
X143682498Y-92123020D01*
X143684699Y-92122646D01*
X143684701Y-92122646D01*
X143748790Y-92100219D01*
X143812882Y-92077793D01*
X143892255Y-92019213D01*
X143897452Y-92017314D01*
X143930422Y-91992280D01*
X143930424Y-91992282D01*
X143951912Y-91975966D01*
X144004484Y-91952770D01*
X144007696Y-91952179D01*
X144008451Y-91952041D01*
X144030855Y-91950000D01*
X145299997Y-91950000D01*
X145300000Y-91950000D01*
X145423445Y-91939770D01*
X145522205Y-91914760D01*
X145527173Y-91913611D01*
X145548836Y-91909070D01*
X145548837Y-91909071D01*
X145577148Y-91903136D01*
X145602581Y-91900500D01*
X145829271Y-91900500D01*
X145853920Y-91898188D01*
X145857497Y-91898020D01*
X145859700Y-91897646D01*
X145859701Y-91897646D01*
X145924421Y-91874999D01*
X145987882Y-91852793D01*
X146097150Y-91772150D01*
X146177793Y-91662882D01*
X146182345Y-91649874D01*
X146198623Y-91618559D01*
X146207732Y-91605858D01*
X146262796Y-91562854D01*
X146266789Y-91561271D01*
X146273217Y-91558724D01*
X146318904Y-91550000D01*
X147149994Y-91550000D01*
X147149997Y-91550000D01*
X147150000Y-91550000D01*
X147161450Y-91549050D01*
X147161457Y-91549052D01*
X147161457Y-91549051D01*
X147210728Y-91544968D01*
X147213286Y-91544862D01*
X147215624Y-91544619D01*
X147217215Y-91544194D01*
X147279879Y-91528326D01*
X147307730Y-91516108D01*
X147332088Y-91508304D01*
X147356736Y-91503137D01*
X147382173Y-91500500D01*
X147598875Y-91500500D01*
X147606734Y-91498116D01*
X147612132Y-91497042D01*
X147612131Y-91497042D01*
X147618769Y-91495722D01*
X147653229Y-91488868D01*
X147653229Y-91488867D01*
X147653231Y-91488867D01*
X147719552Y-91444552D01*
X147763867Y-91378231D01*
X147763867Y-91378229D01*
X147763868Y-91378229D01*
X147772043Y-91337130D01*
X147774765Y-91323447D01*
X147774766Y-91323447D01*
X147774766Y-91323436D01*
X147775500Y-91319748D01*
X147775500Y-90980252D01*
X147775500Y-90980249D01*
X147775499Y-90980247D01*
X149424500Y-90980247D01*
X149424500Y-91319752D01*
X149436131Y-91378229D01*
X149436132Y-91378230D01*
X149439024Y-91383641D01*
X149442917Y-91388385D01*
X149480447Y-91444552D01*
X149546769Y-91488867D01*
X149546770Y-91488868D01*
X149605247Y-91500499D01*
X149605250Y-91500500D01*
X149605252Y-91500500D01*
X149721722Y-91500500D01*
X149731518Y-91502078D01*
X149735286Y-91503876D01*
X149746730Y-91505521D01*
X149779123Y-91515033D01*
X149812002Y-91530199D01*
X149835824Y-91545763D01*
X149903886Y-91575617D01*
X149975933Y-91593862D01*
X150050000Y-91600000D01*
X151337899Y-91600000D01*
X151372831Y-91605021D01*
X151398075Y-91612434D01*
X151450822Y-91643731D01*
X151494244Y-91687154D01*
X151494246Y-91687155D01*
X151494249Y-91687158D01*
X151612580Y-91747451D01*
X151612581Y-91747451D01*
X151612583Y-91747452D01*
X151612582Y-91747452D01*
X151701177Y-91761484D01*
X151708745Y-91763963D01*
X151715009Y-91765515D01*
X151715273Y-91765605D01*
X151715273Y-91765606D01*
X151753152Y-91778519D01*
X151763190Y-91782903D01*
X151763347Y-91782546D01*
X151768037Y-91784603D01*
X151768040Y-91784605D01*
X151881476Y-91834362D01*
X152001555Y-91864770D01*
X152125000Y-91875000D01*
X153606699Y-91875000D01*
X153612489Y-91875134D01*
X153617837Y-91875385D01*
X153617837Y-91875384D01*
X153649287Y-91876855D01*
X153665596Y-91875500D01*
X154632608Y-91875500D01*
X154639075Y-91877399D01*
X154682162Y-91875385D01*
X154687510Y-91875134D01*
X154693300Y-91875000D01*
X155857272Y-91875000D01*
X155892208Y-91880023D01*
X155913813Y-91886367D01*
X155963664Y-91914861D01*
X155964722Y-91915853D01*
X155966606Y-91917618D01*
X155981584Y-91934461D01*
X156027848Y-91997148D01*
X156027849Y-91997148D01*
X156027850Y-91997150D01*
X156137118Y-92077793D01*
X156179845Y-92092744D01*
X156265299Y-92122646D01*
X156265303Y-92122647D01*
X156283742Y-92124375D01*
X156295730Y-92125500D01*
X156295734Y-92125500D01*
X156295739Y-92125500D01*
X156904270Y-92125500D01*
X156904271Y-92125500D01*
X156928920Y-92123188D01*
X156932498Y-92123020D01*
X156934699Y-92122646D01*
X156934701Y-92122646D01*
X156998790Y-92100219D01*
X157062882Y-92077793D01*
X157172150Y-91997150D01*
X157252793Y-91887882D01*
X157275219Y-91823790D01*
X157297646Y-91759701D01*
X157297646Y-91759699D01*
X157298020Y-91757499D01*
X157298188Y-91753919D01*
X157300500Y-91729270D01*
X157300500Y-91502592D01*
X157303141Y-91477137D01*
X157306287Y-91462138D01*
X157306288Y-91462134D01*
X157313677Y-91426912D01*
X157314830Y-91421930D01*
X157315096Y-91420882D01*
X157329635Y-91363468D01*
X157339770Y-91323447D01*
X157339770Y-91323445D01*
X157344868Y-91261930D01*
X157350000Y-91200000D01*
X157350000Y-88800000D01*
X157339770Y-88676555D01*
X157339770Y-88676554D01*
X157339770Y-88676551D01*
X157314769Y-88577829D01*
X157313611Y-88572826D01*
X157309070Y-88551162D01*
X157309071Y-88551162D01*
X157303136Y-88522851D01*
X157300500Y-88497418D01*
X157300500Y-88270728D01*
X157298188Y-88246079D01*
X157298020Y-88242502D01*
X157297646Y-88240300D01*
X157297646Y-88240298D01*
X157252793Y-88112119D01*
X157252792Y-88112117D01*
X157252792Y-88112116D01*
X157172151Y-88002851D01*
X157172150Y-88002850D01*
X157062882Y-87922207D01*
X157062880Y-87922206D01*
X156934704Y-87877354D01*
X156934702Y-87877353D01*
X156934700Y-87877353D01*
X156904270Y-87874500D01*
X156904266Y-87874500D01*
X156904264Y-87874500D01*
X156295734Y-87874500D01*
X156295730Y-87874500D01*
X156277074Y-87876249D01*
X156271069Y-87876812D01*
X156267499Y-87876978D01*
X156265297Y-87877353D01*
X156137118Y-87922206D01*
X156027849Y-88002849D01*
X155947206Y-88112118D01*
X155902353Y-88240297D01*
X155901978Y-88242499D01*
X155901812Y-88246069D01*
X155899500Y-88270733D01*
X155899500Y-88497414D01*
X155896862Y-88522857D01*
X155886381Y-88572851D01*
X155885225Y-88577848D01*
X155860228Y-88676559D01*
X155850000Y-88799980D01*
X155850000Y-90233170D01*
X155844975Y-90268112D01*
X155843853Y-90271931D01*
X155840570Y-90283112D01*
X155802827Y-90341855D01*
X155801458Y-90343042D01*
X155746597Y-90370518D01*
X155739039Y-90372163D01*
X155712668Y-90375000D01*
X154174993Y-90375000D01*
X154152839Y-90376835D01*
X154142606Y-90377258D01*
X154132393Y-90377258D01*
X154122160Y-90376835D01*
X154100004Y-90375000D01*
X154100003Y-90375000D01*
X154100000Y-90375000D01*
X152125000Y-90375000D01*
X152124990Y-90375000D01*
X152124980Y-90375000D01*
X152001561Y-90385228D01*
X152001559Y-90385228D01*
X151881472Y-90415638D01*
X151880586Y-90415968D01*
X151878613Y-90416893D01*
X151763343Y-90467454D01*
X151763172Y-90467064D01*
X151754543Y-90470788D01*
X151753153Y-90471490D01*
X151715257Y-90484432D01*
X151710743Y-90485551D01*
X151702365Y-90488327D01*
X151612582Y-90502547D01*
X151533692Y-90542744D01*
X151525327Y-90547006D01*
X151525322Y-90547008D01*
X151498582Y-90560633D01*
X151494640Y-90562449D01*
X151443843Y-90613247D01*
X151443842Y-90613246D01*
X151419109Y-90637980D01*
X151406162Y-90649247D01*
X151373058Y-90674250D01*
X151320630Y-90697279D01*
X151316813Y-90697977D01*
X151294507Y-90700000D01*
X150049978Y-90700000D01*
X149975936Y-90706136D01*
X149975933Y-90706136D01*
X149903887Y-90724382D01*
X149902994Y-90724713D01*
X149901041Y-90725630D01*
X149871402Y-90738631D01*
X149835825Y-90754236D01*
X149835823Y-90754236D01*
X149835821Y-90754238D01*
X149833970Y-90755448D01*
X149833961Y-90755454D01*
X149826723Y-90760183D01*
X149812373Y-90769558D01*
X149780384Y-90784458D01*
X149748066Y-90794212D01*
X149731927Y-90797928D01*
X149722150Y-90799500D01*
X149605247Y-90799500D01*
X149546770Y-90811131D01*
X149546769Y-90811132D01*
X149514119Y-90832947D01*
X149514117Y-90832948D01*
X149480447Y-90855446D01*
X149480446Y-90855447D01*
X149442916Y-90911614D01*
X149439024Y-90916355D01*
X149436132Y-90921768D01*
X149436132Y-90921769D01*
X149436131Y-90921770D01*
X149424500Y-90980247D01*
X147775499Y-90980247D01*
X147774361Y-90974528D01*
X147774360Y-90974517D01*
X147763868Y-90921770D01*
X147760975Y-90916358D01*
X147757081Y-90911613D01*
X147743484Y-90891264D01*
X147719552Y-90855447D01*
X147683146Y-90831121D01*
X147663385Y-90817917D01*
X147658641Y-90814024D01*
X147653230Y-90811132D01*
X147653229Y-90811131D01*
X147594752Y-90799500D01*
X147594750Y-90799500D01*
X147382177Y-90799500D01*
X147356727Y-90796860D01*
X147332088Y-90791693D01*
X147307734Y-90783891D01*
X147293903Y-90777825D01*
X147272912Y-90760183D01*
X147150021Y-90750000D01*
X147150011Y-90750000D01*
X147150000Y-90750000D01*
X146267728Y-90750000D01*
X146232789Y-90744976D01*
X146211183Y-90738631D01*
X146161332Y-90710135D01*
X146158390Y-90707378D01*
X146143417Y-90690540D01*
X146097151Y-90627851D01*
X145987882Y-90547207D01*
X145987880Y-90547206D01*
X145975129Y-90542744D01*
X145859704Y-90502354D01*
X145859702Y-90502353D01*
X145859700Y-90502353D01*
X145829270Y-90499500D01*
X145829266Y-90499500D01*
X145829264Y-90499500D01*
X145602584Y-90499500D01*
X145577140Y-90496861D01*
X145527134Y-90486377D01*
X145522138Y-90485222D01*
X145423439Y-90460228D01*
X145300018Y-90450000D01*
X145300009Y-90450000D01*
X145300000Y-90450000D01*
X144216830Y-90450000D01*
X144181889Y-90444975D01*
X144166890Y-90440570D01*
X144108144Y-90402827D01*
X144106957Y-90401458D01*
X144079477Y-90346583D01*
X144077832Y-90339021D01*
X144075000Y-90312668D01*
X144075000Y-88349998D01*
X144074999Y-88349996D01*
X144074996Y-88349953D01*
X144066387Y-88246079D01*
X144065461Y-88234901D01*
X144064770Y-88226555D01*
X144039951Y-88128548D01*
X144038853Y-88123814D01*
X144032801Y-88095184D01*
X144031645Y-88093406D01*
X144027711Y-88075577D01*
X144026773Y-88069087D01*
X144025500Y-88051363D01*
X144025500Y-87880555D01*
X144025500Y-87820734D01*
X144025143Y-87816927D01*
X144025143Y-87816919D01*
X144024972Y-87815095D01*
X147644500Y-87815095D01*
X147644500Y-88234902D01*
X147645210Y-88240288D01*
X147645211Y-88240299D01*
X147649968Y-88276436D01*
X147650322Y-88281845D01*
X147650665Y-88283790D01*
X147651740Y-88286015D01*
X147688848Y-88365594D01*
X147689453Y-88369581D01*
X147696160Y-88381863D01*
X147699710Y-88388885D01*
X147702140Y-88394098D01*
X147707972Y-88403496D01*
X147724332Y-88433456D01*
X147739500Y-88492883D01*
X147739500Y-90144752D01*
X147751131Y-90203229D01*
X147751132Y-90203230D01*
X147754024Y-90208641D01*
X147757917Y-90213385D01*
X147795447Y-90269552D01*
X147842512Y-90301000D01*
X147851613Y-90307081D01*
X147856358Y-90310975D01*
X147861770Y-90313868D01*
X147912612Y-90323981D01*
X147915337Y-90324703D01*
X147920249Y-90325500D01*
X148259750Y-90325500D01*
X148263876Y-90325500D01*
X148271742Y-90323114D01*
X148274568Y-90322552D01*
X148318229Y-90313868D01*
X148318229Y-90313867D01*
X148318231Y-90313867D01*
X148384552Y-90269552D01*
X148428867Y-90203231D01*
X148428867Y-90203229D01*
X148428868Y-90203229D01*
X148440072Y-90146896D01*
X148440500Y-90144931D01*
X148440500Y-88570231D01*
X148445522Y-88535298D01*
X148446564Y-88531749D01*
X148452934Y-88510053D01*
X148484228Y-88457311D01*
X148510500Y-88431040D01*
X148548224Y-88393316D01*
X148598972Y-88284487D01*
X148605500Y-88234901D01*
X148605499Y-87815100D01*
X148598972Y-87765513D01*
X148548224Y-87656684D01*
X148463316Y-87571776D01*
X148463315Y-87571775D01*
X148431360Y-87556874D01*
X148397005Y-87526623D01*
X148304904Y-87514500D01*
X148304902Y-87514500D01*
X147945105Y-87514500D01*
X147945104Y-87514500D01*
X147929386Y-87516569D01*
X147903553Y-87519969D01*
X147898144Y-87520323D01*
X147896209Y-87520665D01*
X147893997Y-87521734D01*
X147786681Y-87571777D01*
X147701776Y-87656682D01*
X147651028Y-87765510D01*
X147651026Y-87765518D01*
X147644500Y-87815095D01*
X144024972Y-87815095D01*
X144023187Y-87796077D01*
X144023020Y-87792502D01*
X144022646Y-87790300D01*
X144022646Y-87790298D01*
X143977793Y-87662119D01*
X143977792Y-87662117D01*
X143977792Y-87662116D01*
X143897151Y-87552851D01*
X143897150Y-87552850D01*
X143787882Y-87472207D01*
X143787880Y-87472206D01*
X143659704Y-87427354D01*
X143659702Y-87427353D01*
X143659700Y-87427353D01*
X143629270Y-87424500D01*
X143629266Y-87424500D01*
X143629264Y-87424500D01*
X143020734Y-87424500D01*
X143020730Y-87424500D01*
X143002074Y-87426249D01*
X142996069Y-87426812D01*
X142992499Y-87426978D01*
X142990297Y-87427353D01*
X142862118Y-87472206D01*
X142752849Y-87552849D01*
X142672206Y-87662118D01*
X142627353Y-87790297D01*
X142626978Y-87792499D01*
X142626812Y-87796069D01*
X142624858Y-87816919D01*
X142624500Y-87820733D01*
X142624500Y-88047414D01*
X142623443Y-88051011D01*
X142621862Y-88072857D01*
X142611381Y-88122851D01*
X142610225Y-88127848D01*
X142585228Y-88226559D01*
X142575000Y-88349980D01*
X142575000Y-90856324D01*
X142569976Y-90891264D01*
X142567441Y-90899896D01*
X142529664Y-90958673D01*
X142466107Y-90987695D01*
X142396949Y-90977748D01*
X142347880Y-90937473D01*
X142344883Y-90933316D01*
X142330907Y-90908251D01*
X142270170Y-90761618D01*
X142270169Y-90761617D01*
X142270167Y-90761611D01*
X142223652Y-90691995D01*
X142223652Y-90691994D01*
X142205802Y-90665280D01*
X142190570Y-90633444D01*
X142180663Y-90601802D01*
X142175000Y-90564756D01*
X142175000Y-88349998D01*
X142174999Y-88349996D01*
X142174996Y-88349953D01*
X142166387Y-88246079D01*
X142165461Y-88234901D01*
X142164770Y-88226555D01*
X142139755Y-88127773D01*
X142138612Y-88122831D01*
X142134070Y-88101162D01*
X142134071Y-88101162D01*
X142128136Y-88072850D01*
X142125500Y-88047418D01*
X142125500Y-87820728D01*
X142123188Y-87796079D01*
X142123020Y-87792502D01*
X142122646Y-87790300D01*
X142122646Y-87790298D01*
X142077793Y-87662119D01*
X142077792Y-87662117D01*
X142077792Y-87662116D01*
X141997151Y-87552851D01*
X141997150Y-87552850D01*
X141887882Y-87472207D01*
X141887880Y-87472206D01*
X141759704Y-87427354D01*
X141759702Y-87427353D01*
X141759700Y-87427353D01*
X141729270Y-87424500D01*
X141729266Y-87424500D01*
X141729264Y-87424500D01*
X141120734Y-87424500D01*
X141120730Y-87424500D01*
X141102074Y-87426249D01*
X141096069Y-87426812D01*
X141092499Y-87426978D01*
X141090297Y-87427353D01*
X140962118Y-87472206D01*
X140852849Y-87552849D01*
X140772206Y-87662118D01*
X140727353Y-87790297D01*
X140726978Y-87792499D01*
X140726812Y-87796069D01*
X140724858Y-87816919D01*
X140724500Y-87820733D01*
X140724500Y-88047414D01*
X140721862Y-88072857D01*
X140711381Y-88122851D01*
X140710225Y-88127848D01*
X140685228Y-88226559D01*
X140675000Y-88349980D01*
X140675000Y-90283170D01*
X140669975Y-90318114D01*
X140665570Y-90333112D01*
X140627827Y-90391855D01*
X140626458Y-90393042D01*
X140571597Y-90420518D01*
X140564039Y-90422163D01*
X140537668Y-90425000D01*
X135235223Y-90425000D01*
X135200286Y-90419976D01*
X135170676Y-90411281D01*
X135131982Y-90392077D01*
X135125385Y-90387208D01*
X135125382Y-90387206D01*
X134997204Y-90342354D01*
X134997202Y-90342353D01*
X134997200Y-90342353D01*
X134966770Y-90339500D01*
X134966766Y-90339500D01*
X134966764Y-90339500D01*
X132158234Y-90339500D01*
X132158230Y-90339500D01*
X132139574Y-90341249D01*
X132133569Y-90341812D01*
X132129999Y-90341978D01*
X132127797Y-90342353D01*
X131999616Y-90387206D01*
X131962479Y-90414616D01*
X131931388Y-90431320D01*
X131919350Y-90435717D01*
X131849626Y-90440227D01*
X131788532Y-90406326D01*
X131756554Y-90349494D01*
X131754245Y-90340321D01*
X131750500Y-90310072D01*
X131750500Y-63667394D01*
X131755521Y-63632466D01*
X131756105Y-63630476D01*
X131759132Y-63620167D01*
X131796902Y-63561388D01*
X131860456Y-63532360D01*
X131925166Y-63540372D01*
G37*
%TD.AperFunction*%
%TA.AperFunction,Conductor*%
G36*
X169867606Y-56205523D02*
G01*
X169882604Y-56209927D01*
X169941355Y-56247672D01*
X169942542Y-56249041D01*
X169970018Y-56303902D01*
X169971663Y-56311460D01*
X169974500Y-56337831D01*
X169974500Y-61914153D01*
X169969476Y-61949090D01*
X169965865Y-61961387D01*
X169928090Y-62020165D01*
X169864534Y-62049188D01*
X169799830Y-62041173D01*
X169791083Y-62037585D01*
X169764508Y-62022632D01*
X169750382Y-62012206D01*
X169622204Y-61967354D01*
X169622202Y-61967353D01*
X169622200Y-61967353D01*
X169591770Y-61964500D01*
X169591766Y-61964500D01*
X169591764Y-61964500D01*
X166783234Y-61964500D01*
X166783230Y-61964500D01*
X166764574Y-61966249D01*
X166758569Y-61966812D01*
X166754999Y-61966978D01*
X166752797Y-61967353D01*
X166624617Y-62012206D01*
X166624616Y-62012206D01*
X166624609Y-62012211D01*
X166620580Y-62015185D01*
X166589493Y-62031886D01*
X166560509Y-62042473D01*
X166517965Y-62050000D01*
X135235223Y-62050000D01*
X135200286Y-62044976D01*
X135170676Y-62036281D01*
X135131982Y-62017077D01*
X135125385Y-62012208D01*
X135125382Y-62012206D01*
X134997204Y-61967354D01*
X134997202Y-61967353D01*
X134997200Y-61967353D01*
X134966770Y-61964500D01*
X134966766Y-61964500D01*
X134966764Y-61964500D01*
X132158234Y-61964500D01*
X132158230Y-61964500D01*
X132139574Y-61966249D01*
X132133569Y-61966812D01*
X132129999Y-61966978D01*
X132127797Y-61967353D01*
X131999616Y-62012206D01*
X131962479Y-62039616D01*
X131931388Y-62056320D01*
X131919350Y-62060717D01*
X131849626Y-62065227D01*
X131788532Y-62031326D01*
X131756554Y-61974494D01*
X131754245Y-61965321D01*
X131750500Y-61935072D01*
X131750500Y-56342329D01*
X131755523Y-56307393D01*
X131759927Y-56292395D01*
X131797672Y-56233644D01*
X131799041Y-56232457D01*
X131853920Y-56204977D01*
X131861479Y-56203333D01*
X131887832Y-56200500D01*
X169832670Y-56200500D01*
X169867606Y-56205523D01*
G37*
%TD.AperFunction*%
%TD*%
%TA.AperFunction,Conductor*%
%TO.N,+12V*%
G36*
X154107834Y-82319685D02*
G01*
X154153589Y-82372489D01*
X154163533Y-82441647D01*
X154144478Y-82488092D01*
X154145490Y-82488627D01*
X154141147Y-82496842D01*
X154097291Y-82622173D01*
X154097289Y-82622185D01*
X154094500Y-82651929D01*
X154094500Y-83098070D01*
X154097289Y-83127814D01*
X154097291Y-83127826D01*
X154141147Y-83253155D01*
X154141148Y-83253157D01*
X154220001Y-83359999D01*
X154224630Y-83363415D01*
X154266882Y-83419059D01*
X154275000Y-83463187D01*
X154275000Y-85151000D01*
X154255315Y-85218039D01*
X154202511Y-85263794D01*
X154151000Y-85275000D01*
X149874000Y-85275000D01*
X149806961Y-85255315D01*
X149761206Y-85202511D01*
X149750000Y-85151000D01*
X149750000Y-82915981D01*
X149750500Y-82908351D01*
X149750500Y-82741650D01*
X149750000Y-82734020D01*
X149750000Y-82424000D01*
X149769685Y-82356961D01*
X149822489Y-82311206D01*
X149874000Y-82300000D01*
X154040795Y-82300000D01*
X154107834Y-82319685D01*
G37*
%TD.AperFunction*%
%TD*%
M02*
