%TF.GenerationSoftware,KiCad,Pcbnew,10.0.5*%
%TF.CreationDate,2026-07-25T01:01:45-05:00*%
%TF.ProjectId,rydshift_test,72796473-6869-4667-945f-746573742e6b,rev?*%
%TF.SameCoordinates,Original*%
%TF.FileFunction,Copper,L2,Bot*%
%TF.FilePolarity,Positive*%
%FSLAX46Y46*%
G04 Gerber Fmt 4.6, Leading zero omitted, Abs format (unit mm)*
G04 Created by KiCad (PCBNEW 10.0.5) date 2026-07-25 01:01:45*
%MOMM*%
%LPD*%
G01*
G04 APERTURE LIST*
G04 Aperture macros list*
%AMRoundRect*
0 Rectangle with rounded corners*
0 $1 Rounding radius*
0 $2 $3 $4 $5 $6 $7 $8 $9 X,Y pos of 4 corners*
0 Add a 4 corners polygon primitive as box body*
4,1,4,$2,$3,$4,$5,$6,$7,$8,$9,$2,$3,0*
0 Add four circle primitives for the rounded corners*
1,1,$1+$1,$2,$3*
1,1,$1+$1,$4,$5*
1,1,$1+$1,$6,$7*
1,1,$1+$1,$8,$9*
0 Add four rect primitives between the rounded corners*
20,1,$1+$1,$2,$3,$4,$5,0*
20,1,$1+$1,$4,$5,$6,$7,0*
20,1,$1+$1,$6,$7,$8,$9,0*
20,1,$1+$1,$8,$9,$2,$3,0*%
G04 Aperture macros list end*
%TA.AperFunction,SMDPad,CuDef*%
%ADD10RoundRect,0.250000X-1.600000X0.425000X-1.600000X-0.425000X1.600000X-0.425000X1.600000X0.425000X0*%
%TD*%
%TA.AperFunction,SMDPad,CuDef*%
%ADD11RoundRect,0.250000X1.600000X-0.425000X1.600000X0.425000X-1.600000X0.425000X-1.600000X-0.425000X0*%
%TD*%
%TA.AperFunction,ViaPad*%
%ADD12C,0.600000*%
%TD*%
G04 APERTURE END LIST*
D10*
%TO.P,J1,2,Ext_2*%
%TO.N,GND*%
X133812500Y-88350000D03*
X133812500Y-94000000D03*
%TD*%
D11*
%TO.P,J3,2,Ext_2*%
%TO.N,GND*%
X167937500Y-80537500D03*
X167937500Y-74887500D03*
%TD*%
D10*
%TO.P,J4,2,Ext_2*%
%TO.N,GND*%
X133812500Y-59975000D03*
X133812500Y-65625000D03*
%TD*%
D11*
%TO.P,J5,2,Ext_2*%
%TO.N,GND*%
X167937500Y-65625000D03*
X167937500Y-59975000D03*
%TD*%
%TO.P,J2,2,Ext_2*%
%TO.N,GND*%
X167912500Y-94000000D03*
X167912500Y-88350000D03*
%TD*%
D12*
%TO.N,GND*%
X156825000Y-94650000D03*
X136617647Y-61700000D03*
X152825000Y-96600000D03*
X141850000Y-96600000D03*
X150025000Y-89325000D03*
X136525000Y-87325000D03*
X151893382Y-63900000D03*
X144975000Y-90150000D03*
X141850000Y-97600000D03*
X144775000Y-94375000D03*
X148800000Y-98550000D03*
X155825000Y-96600000D03*
X165075000Y-75625000D03*
X137636029Y-61700000D03*
X167025000Y-58350000D03*
X161058823Y-61700000D03*
X168025000Y-73275000D03*
X149800000Y-94650000D03*
X146801470Y-61700000D03*
X149975000Y-88475000D03*
X159725000Y-90125000D03*
X157700000Y-87375000D03*
X157899682Y-78962500D03*
X148800000Y-93650000D03*
X133700000Y-95650000D03*
X147800000Y-96600000D03*
X168025000Y-86725000D03*
X168025000Y-82200000D03*
X164050000Y-92250000D03*
X146800000Y-94650000D03*
X154813337Y-78962500D03*
X149150006Y-80596191D03*
X140301785Y-92275000D03*
X155550000Y-92225000D03*
X145900000Y-94375000D03*
X148225000Y-90800000D03*
X165125000Y-66775000D03*
X165125000Y-58875000D03*
X163095588Y-63900000D03*
X141850000Y-95600000D03*
X146800000Y-95600000D03*
X140691176Y-61700000D03*
X162950000Y-92250000D03*
X141050000Y-92875000D03*
X138055357Y-90075000D03*
X165125000Y-64875000D03*
X143746323Y-61700000D03*
X147050000Y-87525000D03*
X140691176Y-63900000D03*
X159775000Y-89100000D03*
X144850000Y-98550000D03*
X143850000Y-98550000D03*
X149675734Y-79552209D03*
X133475000Y-67250000D03*
X165125000Y-60775000D03*
X156600000Y-87375000D03*
X151800000Y-96600000D03*
X151050000Y-90350000D03*
X142400000Y-92875000D03*
X144764705Y-63900000D03*
X140301785Y-90075000D03*
X150800000Y-98550000D03*
X164109455Y-76437500D03*
X142400000Y-86700000D03*
X162014809Y-78962500D03*
X155953365Y-76437500D03*
X144975000Y-89400000D03*
X162950000Y-90125000D03*
X155842119Y-78962500D03*
X165150000Y-88225000D03*
X161058823Y-63900000D03*
X147800000Y-97600000D03*
X148950000Y-90800000D03*
X152911764Y-61700000D03*
X165075000Y-79725000D03*
X149150000Y-81710595D03*
X147800000Y-95600000D03*
X165150000Y-94225000D03*
X134700000Y-95650000D03*
X152750000Y-93125000D03*
X163089944Y-76437500D03*
X140350000Y-88312500D03*
X156870901Y-78962500D03*
X166000000Y-73275000D03*
X136600000Y-58875000D03*
X156985294Y-63900000D03*
X165075000Y-73725000D03*
X153825000Y-96600000D03*
X169075000Y-95650000D03*
X152901802Y-76501173D03*
X165150000Y-95225000D03*
X136600000Y-59775000D03*
X167025000Y-95650000D03*
X149800000Y-98550000D03*
X165150000Y-92250000D03*
X156825000Y-97600000D03*
X136932142Y-92275000D03*
X135525000Y-67250000D03*
X165132352Y-63900000D03*
X165150000Y-93325000D03*
X154948529Y-61700000D03*
X160986028Y-78962500D03*
X155825000Y-94650000D03*
X144850000Y-96600000D03*
X149150000Y-82825000D03*
X146800000Y-96600000D03*
X154933854Y-76437500D03*
X142850000Y-98550000D03*
X142850000Y-95600000D03*
X164113970Y-61700000D03*
X142850000Y-97600000D03*
X143850000Y-95600000D03*
X136525000Y-88225000D03*
X139672794Y-63900000D03*
X144850000Y-97600000D03*
X136600000Y-66775000D03*
X145850000Y-98550000D03*
X146800000Y-98550000D03*
X162070432Y-76437500D03*
X150800000Y-97600000D03*
X148838235Y-63900000D03*
X154675000Y-88750000D03*
X165101154Y-78962500D03*
X136600000Y-65775000D03*
X154825000Y-96600000D03*
X139178571Y-90075000D03*
X143575000Y-92875000D03*
X134475000Y-58350000D03*
X155450000Y-89375000D03*
X165075000Y-74625000D03*
X149856617Y-61700000D03*
X138055357Y-92275000D03*
X148925000Y-91475000D03*
X166000000Y-86725000D03*
X143575000Y-86700000D03*
X161925000Y-90125000D03*
X156600000Y-92625000D03*
X147050000Y-85525000D03*
X150975000Y-89325000D03*
X143825000Y-93875000D03*
X169075000Y-58350000D03*
X167025000Y-86725000D03*
X144975000Y-85525000D03*
X164113970Y-63900000D03*
X143746323Y-63900000D03*
X139178571Y-92275000D03*
X162077205Y-61700000D03*
X165150000Y-90125000D03*
X136525000Y-95225000D03*
X152825000Y-97600000D03*
X146050000Y-85525000D03*
X165150000Y-87325000D03*
X166000000Y-95650000D03*
X169075000Y-67250000D03*
X150875000Y-63900000D03*
X147800000Y-98550000D03*
X132675000Y-95650000D03*
X153600000Y-94250000D03*
X148200000Y-91475000D03*
X167025000Y-82200000D03*
X139000000Y-96625000D03*
X134700000Y-86725000D03*
X149856617Y-63900000D03*
X147819852Y-63900000D03*
X146801470Y-63900000D03*
X149800000Y-93650000D03*
X145783088Y-61700000D03*
X168025000Y-67250000D03*
X139672794Y-61700000D03*
X168025000Y-95650000D03*
X158800000Y-87375000D03*
X141850000Y-94600000D03*
X153825000Y-79025000D03*
X145783088Y-63900000D03*
X153600000Y-89950000D03*
X165150000Y-89225000D03*
X150800000Y-95600000D03*
X151050000Y-91950000D03*
X142850000Y-96600000D03*
X169075000Y-73275000D03*
X136600000Y-60775000D03*
X146050000Y-87525000D03*
X135750000Y-86725000D03*
X145850000Y-96600000D03*
X134475000Y-67250000D03*
X153914343Y-76437500D03*
X143850000Y-94600000D03*
X165125000Y-65775000D03*
X156825000Y-96600000D03*
X165132352Y-61700000D03*
X154825000Y-97600000D03*
X158800000Y-92625000D03*
X157992388Y-76437500D03*
X153825000Y-97600000D03*
X144975000Y-86525000D03*
X160040441Y-61700000D03*
X141050000Y-86700000D03*
X155966911Y-61700000D03*
X147050000Y-86525000D03*
X142727941Y-63900000D03*
X156985294Y-61700000D03*
X160031410Y-76437500D03*
X152428185Y-80368870D03*
X168025000Y-58350000D03*
X146050000Y-89400000D03*
X164050000Y-90125000D03*
X165128966Y-76437500D03*
X153930147Y-63900000D03*
X147800000Y-93650000D03*
X163043591Y-78962500D03*
X153930147Y-61700000D03*
X169075000Y-82200000D03*
X142727941Y-61700000D03*
X146800000Y-97600000D03*
X143850000Y-96600000D03*
X155825000Y-95650000D03*
X161925000Y-92250000D03*
X148838235Y-61700000D03*
X153600000Y-88750000D03*
X132450000Y-58350000D03*
X149800000Y-96600000D03*
X136525000Y-93325000D03*
X164072373Y-78962500D03*
X151800000Y-97600000D03*
X143850000Y-97600000D03*
X159725000Y-92250000D03*
X159957246Y-78962500D03*
X144975000Y-87525000D03*
X169075000Y-86725000D03*
X135525000Y-58350000D03*
X148800000Y-95600000D03*
X156972876Y-76437500D03*
X141850000Y-98550000D03*
X158928464Y-78962500D03*
X148800000Y-94650000D03*
X155825000Y-97600000D03*
X150800000Y-96600000D03*
X154825000Y-98550000D03*
X150875000Y-61700000D03*
X155550000Y-93125000D03*
X138654411Y-63900000D03*
X165075000Y-80625000D03*
X146050000Y-86525000D03*
X156825000Y-98550000D03*
X159011899Y-76437500D03*
X135750000Y-95650000D03*
X147800000Y-94650000D03*
X151893382Y-61700000D03*
X152039742Y-77188201D03*
X163095588Y-61700000D03*
X136525000Y-94225000D03*
X167025000Y-67250000D03*
X165125000Y-59775000D03*
X154700000Y-94250000D03*
X166000000Y-58350000D03*
X160825000Y-92250000D03*
X138654411Y-61700000D03*
X167025000Y-73275000D03*
X136932142Y-90075000D03*
X160825000Y-90125000D03*
X158003676Y-61700000D03*
X150800000Y-93650000D03*
X149975000Y-87525000D03*
X136525000Y-89225000D03*
X153825000Y-98550000D03*
X136600000Y-64875000D03*
X166000000Y-82200000D03*
X132450000Y-67250000D03*
X150800000Y-94650000D03*
X160040441Y-63900000D03*
X155825000Y-98550000D03*
X137125000Y-96625000D03*
X142850000Y-94600000D03*
X155450000Y-88250000D03*
X144975000Y-88500000D03*
X150463737Y-78764206D03*
X150975000Y-88475000D03*
X162077205Y-63900000D03*
X152911764Y-63900000D03*
X147050000Y-88475000D03*
X148800000Y-97600000D03*
X151800000Y-94650000D03*
X165075000Y-81625000D03*
X132675000Y-86725000D03*
X149800000Y-95600000D03*
X159022058Y-63900000D03*
X151800000Y-98550000D03*
X159775000Y-88250000D03*
X137636029Y-63900000D03*
X141709558Y-61700000D03*
X151251740Y-77976203D03*
X148800000Y-96600000D03*
X158003676Y-63900000D03*
X155966911Y-63900000D03*
X147819852Y-61700000D03*
X152300000Y-92200000D03*
X136617647Y-63900000D03*
X146800000Y-93650000D03*
X141709558Y-63900000D03*
X146050000Y-90200000D03*
X133700000Y-86725000D03*
X149800000Y-97600000D03*
X151800000Y-95600000D03*
X166000000Y-67250000D03*
X146050000Y-88475000D03*
X144764705Y-61700000D03*
X156825000Y-95650000D03*
X157700000Y-92625000D03*
X154700000Y-89950000D03*
X133475000Y-58350000D03*
X145850000Y-97600000D03*
X159022058Y-61700000D03*
X154948529Y-63900000D03*
X161050921Y-76437500D03*
X153156370Y-79640685D03*
X152825000Y-98550000D03*
%TD*%
%TA.AperFunction,Conductor*%
%TO.N,GND*%
G36*
X169917539Y-56220185D02*
G01*
X169963294Y-56272989D01*
X169974500Y-56324500D01*
X169974500Y-99100500D01*
X169954815Y-99167539D01*
X169902011Y-99213294D01*
X169850500Y-99224500D01*
X131874500Y-99224500D01*
X131807461Y-99204815D01*
X131761706Y-99152011D01*
X131750500Y-99100500D01*
X131750500Y-56324500D01*
X131770185Y-56257461D01*
X131822989Y-56211706D01*
X131874500Y-56200500D01*
X169850500Y-56200500D01*
X169917539Y-56220185D01*
G37*
%TD.AperFunction*%
%TD*%
M02*
